<svg width="256" height="256" viewBox="0 0 256 256" fill="none" xmlns="http://www.w3.org/2000/svg">
  <defs>
    <linearGradient id="bg" x1="32" y1="32" x2="224" y2="224">
      <stop offset="0%" stop-color="#0A1628"/>
      <stop offset="100%" stop-color="#02060A"/>
    </linearGradient>

    <linearGradient id="z_gradient" x1="96" y1="96" x2="160" y2="160" gradientUnits="userSpaceOnUse">
      <stop offset="0%" stop-color="#67E8F9"/>
      <stop offset="50%" stop-color="#38BDF8"/>
      <stop offset="100%" stop-color="#2563EB"/>
    </linearGradient>

    <filter id="glow_v2" x="-20%" y="-20%" width="140%" height="140%">
      <feGaussianBlur stdDeviation="3" result="blur"/>
      <feComposite in="SourceGraphic" in2="blur" operator="over"/>
    </filter>
  </defs>

  <rect x="28" y="28" width="200" height="200" rx="40" fill="url(#bg)"/>
  <rect x="30" y="30" width="196" height="196" rx="38" stroke="#2563EB" stroke-width="1.5" opacity="0.3"/>
  
  <g stroke="#22D3EE" stroke-opacity="0.2" stroke-width="1.5">
    <path d="M48 100H80 M48 156H72 M176 100H208 M184 156H208"/>
    <path d="M100 48V80 M156 48V72 M100 176V208 M156 184V208"/>
  </g>

  <rect x="76" y="76" width="104" height="104" rx="10" fill="#070D18" stroke="#22D3EE" stroke-opacity="0.2"/>

  <g filter="url(#glow_v2)">
    <path d="M96 96H160V104L106 152H160V160H96V152L150 104H96V96Z" 
          fill="url(#z_gradient)" 
          stroke="#67E8F9" 
          stroke-width="0.5" 
          stroke-linejoin="round"/>
  </g>

  <g stroke="#67E8F9" stroke-opacity="0.4" stroke-width="1" stroke-linecap="round">
    <circle cx="84" cy="100" r="1.5" fill="#67E8F9"/>
    <circle cx="172" cy="156" r="1.5" fill="#67E8F9"/>
  </g>
</svg>