<svg
  width="512"
  height="512"
  viewBox="0 0 512 512"
  fill="none"
  xmlns="http://www.w3.org/2000/svg"
>
  <defs>
    <radialGradient id="bgGlow" cx="50%" cy="50%" r="50%">
      <stop offset="0%" stop-color="#00E5FF" stop-opacity="0.22" />
      <stop offset="55%" stop-color="#00BFFF" stop-opacity="0.1" />
      <stop offset="100%" stop-color="#00131F" stop-opacity="0" />
    </radialGradient>

    <linearGradient id="ringGradient" x1="64" y1="64" x2="448" y2="448">
      <stop offset="0%" stop-color="#8AF7FF" />
      <stop offset="45%" stop-color="#00E5FF" />
      <stop offset="100%" stop-color="#009DFF" />
    </linearGradient>

    <linearGradient id="innerGradient" x1="140" y1="120" x2="380" y2="392">
      <stop offset="0%" stop-color="#071A26" />
      <stop offset="100%" stop-color="#020A12" />
    </linearGradient>

    <filter id="softGlow" x="-50%" y="-50%" width="200%" height="200%">
      <feGaussianBlur stdDeviation="6" result="blur" />
      <feMerge>
        <feMergeNode in="blur" />
        <feMergeNode in="SourceGraphic" />
      </feMerge>
    </filter>

    <filter id="strongGlow" x="-80%" y="-80%" width="260%" height="260%">
      <feGaussianBlur stdDeviation="10" result="blur" />
      <feColorMatrix
        in="blur"
        type="matrix"
        values="
          1 0 0 0 0
          0 1 0 0 0.6
          0 0 1 0 1
          0 0 0 1 0"
      />
      <feMerge>
        <feMergeNode in="blur" />
        <feMergeNode in="SourceGraphic" />
      </feMerge>
    </filter>
  </defs>

  <!-- Fondo opcional -->
  <circle cx="256" cy="256" r="220" fill="url(#bgGlow)" />

  <!-- Disco exterior -->
  <circle
    cx="256"
    cy="256"
    r="176"
    stroke="url(#ringGradient)"
    stroke-width="18"
    filter="url(#strongGlow)"
  />

  <!-- Anillo secundario -->
  <circle
    cx="256"
    cy="256"
    r="146"
    stroke="#38E8FF"
    stroke-opacity="0.75"
    stroke-width="6"
    filter="url(#softGlow)"
  />

  <!-- Cuerpo interior tipo dona -->
  <path
    d="
      M 256 126
      A 130 130 0 1 1 256 386
      A 130 130 0 1 1 256 126

      M 256 198
      A 58 58 0 1 0 256 314
      A 58 58 0 1 0 256 198
    "
    fill="url(#innerGradient)"
    fill-rule="evenodd"
    clip-rule="evenodd"
    stroke="#0EDCFF"
    stroke-opacity="0.35"
    stroke-width="2"
  />

  <!-- Núcleo hueco -->
  <circle
    cx="256"
    cy="256"
    r="58"
    fill="none"
    stroke="#7DF6FF"
    stroke-width="5"
    filter="url(#softGlow)"
  />

  <!-- Anillo del núcleo -->
  <circle
    cx="256"
    cy="256"
    r="82"
    stroke="#00D9FF"
    stroke-opacity="0.8"
    stroke-width="4"
    stroke-dasharray="18 10"
    filter="url(#softGlow)"
  />

  <!-- Segmentos decorativos -->
  <path
    d="M256 92 A164 164 0 0 1 340 115"
    stroke="#B6FCFF"
    stroke-width="8"
    stroke-linecap="round"
    filter="url(#softGlow)"
  />
  <path
    d="M398 172 A164 164 0 0 1 420 256"
    stroke="#7CEFFF"
    stroke-width="8"
    stroke-linecap="round"
    filter="url(#softGlow)"
  />
  <path
    d="M420 256 A164 164 0 0 1 398 340"
    stroke="#38E8FF"
    stroke-width="8"
    stroke-linecap="round"
    filter="url(#softGlow)"
  />
  <path
    d="M172 398 A164 164 0 0 1 92 256"
    stroke="#7CEFFF"
    stroke-width="8"
    stroke-linecap="round"
    filter="url(#softGlow)"
  />

  <!-- Líneas internas -->
  <circle
    cx="256"
    cy="256"
    r="104"
    stroke="#00E5FF"
    stroke-opacity="0.22"
    stroke-width="2"
  />
  <circle
    cx="256"
    cy="256"
    r="116"
    stroke="#00E5FF"
    stroke-opacity="0.14"
    stroke-width="2"
  />
</svg>